<svg width="86" height="31" viewBox="0 0 86 31" fill="none" xmlns="http://www.w3.org/2000/svg">
<rect width="86" height="31" rx="10" fill="#FF5E3A"/>
<path d="M13.5078 18.9492H9.91211L9.22852 21H7.04785L10.7529 11.0469H12.6533L16.3789 21H14.1982L13.5078 18.9492ZM10.4658 17.2881H12.9541L11.7031 13.5625L10.4658 17.2881ZM16.8711 17.2471C16.8711 16.0941 17.1286 15.1758 17.6436 14.4922C18.1631 13.8086 18.8717 13.4668 19.7695 13.4668C20.4896 13.4668 21.0843 13.7357 21.5537 14.2734V10.5H23.5361V21H21.752L21.6562 20.2139C21.1641 20.8291 20.5306 21.1367 19.7559 21.1367C18.8854 21.1367 18.1859 20.7949 17.6572 20.1113C17.1331 19.4232 16.8711 18.4684 16.8711 17.2471ZM18.8467 17.3906C18.8467 18.0833 18.9674 18.6143 19.209 18.9834C19.4505 19.3525 19.8014 19.5371 20.2617 19.5371C20.8724 19.5371 21.3031 19.2796 21.5537 18.7646V15.8457C21.3076 15.3307 20.8815 15.0732 20.2754 15.0732C19.3229 15.0732 18.8467 15.8457 18.8467 17.3906ZM24.7598 17.2471C24.7598 16.0941 25.0173 15.1758 25.5322 14.4922C26.0518 13.8086 26.7604 13.4668 27.6582 13.4668C28.3783 13.4668 28.973 13.7357 29.4424 14.2734V10.5H31.4248V21H29.6406L29.5449 20.2139C29.0527 20.8291 28.4193 21.1367 27.6445 21.1367C26.7741 21.1367 26.0745 20.7949 25.5459 20.1113C25.0218 19.4232 24.7598 18.4684 24.7598 17.2471ZM26.7354 17.3906C26.7354 18.0833 26.8561 18.6143 27.0977 18.9834C27.3392 19.3525 27.6901 19.5371 28.1504 19.5371C28.7611 19.5371 29.1917 19.2796 29.4424 18.7646V15.8457C29.1963 15.3307 28.7702 15.0732 28.1641 15.0732C27.2116 15.0732 26.7354 15.8457 26.7354 17.3906ZM38.8076 11.7852V13.6035H40.0723V15.0527H38.8076V18.7441C38.8076 19.0176 38.86 19.2135 38.9648 19.332C39.0697 19.4505 39.2702 19.5098 39.5664 19.5098C39.7852 19.5098 39.9788 19.4938 40.1475 19.4619V20.959C39.7601 21.0775 39.3613 21.1367 38.9512 21.1367C37.5658 21.1367 36.8594 20.4372 36.832 19.0381V15.0527H35.752V13.6035H36.832V11.7852H38.8076ZM40.6602 17.2334C40.6602 16.4997 40.8014 15.8457 41.084 15.2715C41.3665 14.6973 41.7721 14.2529 42.3008 13.9385C42.834 13.624 43.4515 13.4668 44.1533 13.4668C45.1514 13.4668 45.9648 13.7721 46.5938 14.3828C47.2272 14.9935 47.5804 15.8229 47.6533 16.8711L47.667 17.377C47.667 18.5117 47.3503 19.4232 46.7168 20.1113C46.0833 20.7949 45.2334 21.1367 44.167 21.1367C43.1006 21.1367 42.2484 20.7949 41.6104 20.1113C40.9769 19.4277 40.6602 18.498 40.6602 17.3223V17.2334ZM42.6357 17.377C42.6357 18.0788 42.7679 18.6165 43.0322 18.9902C43.2965 19.3594 43.6748 19.5439 44.167 19.5439C44.6455 19.5439 45.0192 19.3617 45.2881 18.9971C45.557 18.6279 45.6914 18.04 45.6914 17.2334C45.6914 16.5452 45.557 16.012 45.2881 15.6338C45.0192 15.2555 44.641 15.0664 44.1533 15.0664C43.6702 15.0664 43.2965 15.2555 43.0322 15.6338C42.7679 16.0075 42.6357 16.5885 42.6357 17.377ZM60.3135 17.6846C60.236 18.7555 59.8395 19.5986 59.124 20.2139C58.4131 20.8291 57.4743 21.1367 56.3076 21.1367C55.0316 21.1367 54.0267 20.7083 53.293 19.8516C52.5638 18.9902 52.1992 17.8099 52.1992 16.3105V15.7021C52.1992 14.7451 52.3678 13.902 52.7051 13.1729C53.0423 12.4437 53.5231 11.8854 54.1475 11.498C54.7764 11.1061 55.5055 10.9102 56.335 10.9102C57.4834 10.9102 58.4085 11.2178 59.1104 11.833C59.8122 12.4482 60.2178 13.3118 60.3271 14.4238H58.2764C58.2262 13.7812 58.0462 13.3164 57.7363 13.0293C57.431 12.7376 56.9639 12.5918 56.335 12.5918C55.6514 12.5918 55.1387 12.8379 54.7969 13.3301C54.4596 13.8177 54.2865 14.5765 54.2773 15.6064V16.3584C54.2773 17.4339 54.4391 18.2201 54.7627 18.7168C55.0908 19.2135 55.6058 19.4619 56.3076 19.4619C56.9411 19.4619 57.4128 19.3184 57.7227 19.0312C58.0371 18.7396 58.2171 18.2907 58.2627 17.6846H60.3135ZM65.8164 21C65.7253 20.8223 65.6592 20.6012 65.6182 20.3369C65.1396 20.8701 64.5176 21.1367 63.752 21.1367C63.0273 21.1367 62.4258 20.9271 61.9473 20.5078C61.4733 20.0885 61.2363 19.5599 61.2363 18.9219C61.2363 18.138 61.5257 17.5365 62.1045 17.1172C62.6878 16.6979 63.5286 16.486 64.627 16.4814H65.5361V16.0576C65.5361 15.7158 65.4473 15.4424 65.2695 15.2373C65.0964 15.0322 64.8206 14.9297 64.4424 14.9297C64.1097 14.9297 63.8477 15.0094 63.6562 15.1689C63.4694 15.3285 63.376 15.5472 63.376 15.8252H61.4004C61.4004 15.3968 61.5326 15.0003 61.7969 14.6357C62.0612 14.2712 62.4349 13.9863 62.918 13.7812C63.401 13.5716 63.9434 13.4668 64.5449 13.4668C65.4564 13.4668 66.1787 13.6969 66.7119 14.1572C67.2497 14.613 67.5186 15.2555 67.5186 16.085V19.291C67.5231 19.9928 67.6211 20.5238 67.8125 20.8838V21H65.8164ZM64.1826 19.626C64.4743 19.626 64.7432 19.5622 64.9893 19.4346C65.2354 19.3024 65.4176 19.127 65.5361 18.9082V17.6367H64.7979C63.8089 17.6367 63.2826 17.9785 63.2188 18.6621L63.2119 18.7783C63.2119 19.0244 63.2985 19.2272 63.4717 19.3867C63.6449 19.5462 63.8818 19.626 64.1826 19.626ZM73.1924 15.4561C72.9235 15.4196 72.6865 15.4014 72.4814 15.4014C71.734 15.4014 71.2441 15.6543 71.0117 16.1602V21H69.0361V13.6035H70.9023L70.957 14.4854C71.3535 13.8063 71.9027 13.4668 72.6045 13.4668C72.8232 13.4668 73.0283 13.4964 73.2197 13.5557L73.1924 15.4561ZM76.8564 11.7852V13.6035H78.1211V15.0527H76.8564V18.7441C76.8564 19.0176 76.9089 19.2135 77.0137 19.332C77.1185 19.4505 77.319 19.5098 77.6152 19.5098C77.834 19.5098 78.0277 19.4938 78.1963 19.4619V20.959C77.8089 21.0775 77.4102 21.1367 77 21.1367C75.6146 21.1367 74.9082 20.4372 74.8809 19.0381V15.0527H73.8008V13.6035H74.8809V11.7852H76.8564Z" fill="white"/>
</svg>
